<svg width="288" height="100" viewBox="0 0 288 100" fill="none" xmlns="http://www.w3.org/2000/svg">
<rect x="3.34375" y="3.34375" width="281.786" height="94.5366" rx="35.0685" fill="white"/>
<path fill-rule="evenodd" clip-rule="evenodd" d="M274.854 0H13.1862C9.69218 0.0102032 6.34413 1.40274 3.87344 3.87343C1.40274 6.34413 0.0102032 9.69218 0 13.1862V86.8138C0.0102032 90.3078 1.40274 93.6559 3.87344 96.1266C6.34413 98.5973 9.69218 99.9898 13.1862 100H274.854C278.222 99.9922 281.45 98.6509 283.831 96.2695C286.212 93.8881 287.554 90.6604 287.561 87.2926V12.6982C287.551 9.33198 286.209 6.10668 283.828 3.72725C281.447 1.34782 278.22 0.00777223 274.854 0V0ZM280.604 86.9721C280.597 88.7711 279.88 90.4945 278.608 91.7666C277.336 93.0386 275.612 93.756 273.814 93.7623H13.7387C11.9392 93.757 10.2148 93.04 8.94196 91.7678C7.66912 90.4957 6.9512 88.7717 6.94488 86.9721V13.026C6.95119 11.2271 7.66861 9.50365 8.94065 8.23161C10.2127 6.95957 11.9361 6.24215 13.7351 6.23584H273.814C275.612 6.24215 277.336 6.95957 278.608 8.23161C279.88 9.50365 280.597 11.2271 280.604 13.026V86.9721Z" fill="#325162"/>
<path d="M18.4443 74.7585V69.4324H138.52C146.141 69.4324 150.338 66.2132 150.338 60.3641C150.338 53.7342 144.023 52.6292 136.71 51.34C128.99 49.9845 120.24 48.4449 120.24 38.8444C120.24 29.9952 126.577 25.0762 138.08 24.9915H139.08L139.655 25.0025H269.65V30.3194H137.916C127.084 30.3194 125.829 34.999 125.829 38.5166C125.829 44.0618 131.588 45.0102 138.259 46.106C146.546 47.467 155.939 49.0085 155.939 60.1707C155.939 69.309 149.279 74.7622 138.126 74.7622L18.4443 74.7585Z" fill="#C52F33"/>
<path d="M33.4649 35.417H18.4443V62.9221C18.4443 62.9221 18.4443 62.9332 18.4443 62.9387C18.4535 63.9055 19.216 64.412 20.0282 64.6901C20.0825 64.6984 20.1372 64.704 20.1921 64.7067C20.4217 64.7067 20.6492 64.6614 20.8613 64.5735C21.0735 64.4855 21.2662 64.3566 21.4285 64.1941C21.5909 64.0316 21.7196 63.8387 21.8073 63.6265C21.895 63.4142 21.94 63.1868 21.9398 62.9571C21.9398 62.946 21.9398 62.9368 21.9398 62.9258V50.1263H30.5182L30.4998 50.095C30.8494 50.028 31.1616 49.8336 31.376 49.5495C31.5904 49.2655 31.6918 48.9119 31.6603 48.5574C31.6289 48.2028 31.467 47.8726 31.206 47.6306C30.9449 47.3887 30.6034 47.2523 30.2475 47.2478H30.2144C30.1996 47.2478 30.1849 47.2478 30.1683 47.2478H21.9435V38.29H33.4649C33.8459 38.29 34.2112 38.1386 34.4806 37.8692C34.75 37.5998 34.9014 37.2345 34.9014 36.8535C34.9014 36.4725 34.75 36.1071 34.4806 35.8377C34.2112 35.5683 33.8459 35.417 33.4649 35.417V35.417Z" fill="#325162"/>
<path d="M42.1335 53.2033L46.8224 39.6672H48.2073L52.8114 53.2089L42.1335 53.2033ZM59.6679 62.5958C59.5979 62.3821 59.5243 62.163 59.4506 61.9383C59.132 60.9641 52.6015 41.5641 50.9219 36.5787C50.8795 36.4535 50.8427 36.3448 50.8077 36.238C50.6925 35.993 50.5103 35.7857 50.2822 35.64C50.054 35.4943 49.7893 35.4162 49.5186 35.4148H45.5001C45.223 35.415 44.9518 35.4955 44.7195 35.6465C44.4871 35.7974 44.3034 36.0125 44.1906 36.2656C44.1667 36.3375 44.1428 36.4038 44.1151 36.4866C42.4761 41.3302 35.7964 61.0561 35.4594 62.0654C35.4133 62.2053 35.3691 62.3416 35.3231 62.4742C35.3001 62.5913 35.2884 62.7103 35.2881 62.8297C35.2871 63.2554 35.4355 63.6679 35.7075 63.9954C35.9794 64.3229 36.3577 64.5445 36.7764 64.6217C37.195 64.6988 37.6274 64.6266 37.9983 64.4176C38.3691 64.2086 38.6549 63.876 38.8057 63.4779C38.8057 63.4779 38.8057 63.4779 38.8057 63.489C38.8083 63.4946 38.812 63.4996 38.8167 63.5037C39.5092 62.1703 39.9548 60.5276 40.3968 59.0174L41.2219 56.1979H53.7231L54.5923 59.0174C55.0509 60.5165 55.4947 62.1482 56.1761 63.4798C56.2498 63.6234 56.3253 63.7634 56.4045 63.8997C56.6297 64.2114 56.948 64.4436 57.3136 64.563C57.6792 64.6824 58.0732 64.6827 58.439 64.564C58.8048 64.4453 59.1235 64.2136 59.3493 63.9023C59.575 63.591 59.6963 63.2161 59.6955 62.8315C59.6931 62.7531 59.6851 62.6749 59.6716 62.5976L59.6679 62.5958Z" fill="#325162"/>
<path d="M72.4508 61.712H67.366V51.2514H72.7841C77.2428 51.2514 79.2005 53.2938 79.2005 56.7119C79.2005 60.2534 77.1581 61.712 72.4508 61.712V61.712ZM67.366 38.2898H72.4508C76.7418 38.2898 78.7842 39.5421 78.7842 43.0781C78.7842 46.5367 77.2428 48.371 72.7841 48.371H67.366V38.2898ZM78.7842 49.7928C80.9095 48.7928 82.2834 46.5423 82.2834 43.7153V42.463C82.2834 37.2143 78.1581 35.4224 72.4489 35.4224H63.865V62.5039C63.865 64.5463 67.3236 64.5886 67.3236 64.5886H72.4508C78.5282 64.5886 82.7014 62.3787 82.7014 57.3362V56.0857C82.7014 53.2109 81.1176 50.8775 78.7842 49.7928Z" fill="#325162"/>
<path d="M97.4531 48.3767H92.0294V38.29H97.1124C101.403 38.29 103.446 39.5423 103.446 43.0783C103.446 46.5369 101.904 48.3712 97.4457 48.3712L97.4531 48.3767ZM107 61.6256C105.203 57.8428 102.788 52.6862 98.4863 51.0011C103.405 51.0011 106.947 48.4228 106.947 43.71V42.4576C106.947 37.2089 102.822 35.417 97.1124 35.417H88.5303V62.9221C88.5303 63.854 89.2669 64.366 90.0588 64.6514C90.306 64.6927 90.5593 64.6786 90.8004 64.6101C91.0415 64.5417 91.2643 64.4205 91.4529 64.2554C91.6414 64.0903 91.7909 63.8853 91.8907 63.6554C91.9904 63.4255 92.0378 63.1763 92.0294 62.9258C92.0303 62.9148 92.0303 62.9037 92.0294 62.8926V62.8926V51.1263C98.571 51.9606 100.112 56.4192 103.405 62.5446C103.596 62.893 103.83 63.216 104.101 63.5059V63.5059L104.124 63.5354L104.194 63.6127C104.485 63.9 104.868 64.0757 105.275 64.1092C105.683 64.1426 106.09 64.0317 106.424 63.7958C106.758 63.5599 106.999 63.214 107.104 62.8187C107.209 62.4233 107.172 62.0036 106.998 61.6329L107 61.6256Z" fill="#325162"/>
<path d="M115.698 37.1312C115.698 37.0907 115.698 37.0557 115.687 37.017C115.663 36.6233 115.506 36.2494 115.242 35.9566C114.978 35.6638 114.622 35.4695 114.232 35.4056C114.139 35.3889 114.045 35.3796 113.951 35.3779C113.487 35.3784 113.043 35.5628 112.716 35.8905C112.389 36.2182 112.205 36.6625 112.205 37.1257C112.205 37.1551 112.205 37.1828 112.214 37.2122H112.203V62.9236C112.203 62.9751 112.216 63.0212 112.219 63.0709C112.223 63.1425 112.231 63.2138 112.243 63.2845C112.243 63.2931 112.243 63.3017 112.243 63.3103C112.274 63.4279 112.318 63.5416 112.374 63.6492C112.49 63.906 112.666 64.1308 112.888 64.3041C113.11 64.4774 113.371 64.5939 113.649 64.6437C113.899 64.6909 114.157 64.6818 114.404 64.6171C114.651 64.5523 114.881 64.4335 115.076 64.2692C115.271 64.105 115.427 63.8994 115.533 63.6673C115.64 63.4352 115.693 63.1824 115.689 62.9272C115.689 62.9162 115.689 62.9051 115.689 62.8941V37.1312H115.698Z" fill="#325162"/>
<path d="M167.71 51.71H163.876V38.2512H167.71C172.419 38.2512 175.71 39.5403 175.71 44.9603C175.71 50.7928 172.419 51.71 167.71 51.71ZM167.71 35.3745H160.375V62.8391C160.376 63.1582 160.466 63.4707 160.635 63.7415C160.653 63.7766 160.674 63.8104 160.697 63.8428C160.924 64.1154 161.211 64.3317 161.535 64.4745C161.799 64.5716 162.082 64.6034 162.36 64.5672C162.638 64.5309 162.903 64.4277 163.133 64.2663C163.363 64.105 163.55 63.8903 163.678 63.6408C163.807 63.3912 163.873 63.1142 163.87 62.8336C163.87 62.8225 163.87 62.8133 163.87 62.8041V54.5848H167.705C173.83 54.5848 179.206 52.5829 179.206 45.3323V44.5846C179.206 37.1241 173.83 35.3764 167.705 35.3764L167.71 35.3745Z" fill="#325162"/>
<path d="M205.691 35.4316C205.232 35.4316 204.792 35.6138 204.468 35.9381C204.143 36.2624 203.961 36.7023 203.961 37.1609C203.961 37.1756 203.961 37.1885 203.961 37.2051V55.4025C203.961 59.5186 200.707 61.6641 196.053 61.6641C191.399 61.6641 188.147 59.5204 188.147 55.4025V37.0228C188.144 36.9906 188.139 36.9586 188.132 36.927V36.927C188.145 37.0013 188.151 37.0764 188.153 37.1517C188.16 36.92 188.121 36.6891 188.038 36.4728C187.954 36.2565 187.828 36.0592 187.667 35.8926C187.505 35.726 187.312 35.5935 187.099 35.5031C186.885 35.4126 186.656 35.366 186.424 35.366C186.192 35.366 185.963 35.4126 185.749 35.5031C185.536 35.5935 185.343 35.726 185.182 35.8926C185.02 36.0592 184.894 36.2565 184.811 36.4728C184.727 36.6891 184.688 36.92 184.696 37.1517C184.696 37.1793 184.696 37.2051 184.696 37.2327V56.0047C184.696 61.8133 190.009 64.6955 196.061 64.6955C202.112 64.6955 207.425 61.8133 207.425 56.0047V37.1517C207.426 36.9247 207.381 36.6999 207.294 36.4901C207.208 36.2803 207.081 36.0896 206.92 35.929C206.76 35.7684 206.569 35.641 206.359 35.5541C206.15 35.4671 205.925 35.4224 205.698 35.4224L205.691 35.4316Z" fill="#325162"/>
<path d="M235.717 35.3745L226.757 54.0857L219.006 37.4574C218.006 35.3321 216.133 35.3726 215.963 35.3726H213.424V62.8722C213.424 62.8869 213.424 62.8998 213.424 62.9146C213.424 62.9293 213.424 62.9422 213.424 62.9569C213.424 63.1867 213.469 63.4142 213.556 63.6266C213.644 63.839 213.773 64.032 213.935 64.1946C214.097 64.3572 214.29 64.4863 214.502 64.5745C214.714 64.6626 214.942 64.7081 215.172 64.7083H215.205C215.663 64.7001 216.099 64.5124 216.42 64.1855C216.741 63.8586 216.921 63.4188 216.921 62.9606C216.921 62.9403 216.921 62.9219 216.921 62.9017V43.544C216.901 42.2882 216.804 41.0347 216.63 39.7907L225.083 57.3399C225.083 57.3399 225.19 57.5498 225.249 57.6511C225.295 57.7211 225.337 57.7856 225.382 57.8482C225.572 58.096 225.826 58.2878 226.117 58.4033C226.408 58.5187 226.724 58.5536 227.033 58.5042C227.341 58.4547 227.631 58.3229 227.871 58.1225C228.111 57.9221 228.293 57.6606 228.396 57.3657C228.396 57.3657 237.008 39.7907 237.008 39.7907C236.834 41.0347 236.737 42.2882 236.717 43.544V62.8722C236.717 62.8906 236.717 62.9072 236.717 62.9238C236.717 62.9403 236.717 62.9459 236.717 62.9569C236.717 63.4214 236.902 63.8669 237.23 64.1954C237.559 64.5238 238.004 64.7083 238.468 64.7083H238.5C238.958 64.7001 239.394 64.5124 239.715 64.1855C240.036 63.8586 240.216 63.4188 240.216 62.9606V37.4574C240.216 35.3726 236.717 35.3726 235.715 35.3726L235.717 35.3745Z" fill="#325162"/>
<path d="M252.132 53.2033L256.823 39.6672H258.207L262.812 53.2089L252.132 53.2033ZM269.668 62.5958C269.596 62.3821 269.524 62.163 269.451 61.9383C269.132 60.9641 262.6 41.5641 260.922 36.5787L260.806 36.238C260.691 35.9928 260.509 35.7852 260.281 35.6394C260.053 35.4937 259.788 35.4158 259.517 35.4148H255.504C255.227 35.415 254.956 35.4955 254.723 35.6465C254.491 35.7974 254.307 36.0125 254.194 36.2656C254.169 36.3375 254.147 36.4038 254.119 36.4866C252.478 41.3302 245.8 61.0562 245.463 62.0654C245.417 62.2053 245.373 62.3416 245.327 62.4742C245.303 62.5913 245.291 62.7103 245.29 62.8297C245.29 63.2556 245.438 63.6683 245.711 63.9957C245.983 64.3231 246.362 64.5446 246.781 64.6215C247.2 64.6984 247.633 64.6259 248.004 64.4166C248.375 64.2073 248.66 63.8745 248.811 63.4761C248.811 63.4761 248.811 63.4761 248.811 63.4871C248.811 63.492 248.811 63.497 248.811 63.5019C249.504 62.1685 249.951 60.5258 250.393 59.0156L251.218 56.196H263.716L264.585 59.0156C265.044 60.5147 265.487 62.1464 266.169 63.4779C266.243 63.6216 266.318 63.7615 266.397 63.8978C266.623 64.2095 266.941 64.4418 267.306 64.5611C267.672 64.6805 268.066 64.6809 268.432 64.5621C268.798 64.4434 269.116 64.2117 269.342 63.9004C269.568 63.5891 269.689 63.2142 269.688 62.8297C269.686 62.7512 269.678 62.6731 269.664 62.5958H269.668Z" fill="#325162"/>
<path d="M265.576 11.1936C266.157 11.1954 266.732 11.3117 267.269 11.5358C267.805 11.7598 268.292 12.0873 268.701 12.4996C269.111 12.9118 269.435 13.4007 269.656 13.9383C269.877 14.4759 269.99 15.0517 269.988 15.6329C269.986 16.2141 269.87 16.7892 269.646 17.3254C269.421 17.8617 269.094 18.3485 268.682 18.7582C268.27 19.1678 267.781 19.4923 267.243 19.713C266.705 19.9337 266.13 20.0464 265.548 20.0446C263.031 20.0446 261.04 18.1072 261.04 15.5915C261.04 13.1292 263.031 11.1936 265.548 11.1936H265.576ZM265.521 11.9671C263.528 11.9671 262.009 13.5988 262.009 15.5915C262.009 17.6376 263.528 19.2416 265.576 19.2416C267.539 19.2693 269.033 17.6376 269.033 15.6191C269.033 13.6006 267.539 11.9671 265.548 11.9671H265.521ZM264.745 18.0243H263.889V13.4054C264.419 13.311 264.955 13.2648 265.493 13.2673C266.269 13.2673 266.655 13.4054 266.931 13.6264C267.084 13.7428 267.206 13.894 267.288 14.0674C267.369 14.2408 267.408 14.4312 267.401 14.6228C267.401 15.1753 266.987 15.5436 266.517 15.702V15.7572C266.904 15.923 267.125 16.2821 267.254 16.8917C267.392 17.5823 267.502 17.8586 267.622 18.0243H266.738C266.6 17.8586 266.49 17.4442 266.35 16.8346C266.239 16.3097 265.935 16.0887 265.3 16.0887H264.747V18.0243H264.745ZM264.745 15.4239H265.329C265.937 15.4239 266.519 15.2305 266.519 14.7056C266.519 14.2636 266.213 13.9303 265.414 13.9303C265.191 13.9253 264.968 13.9445 264.749 13.9874V15.4239H264.745Z" fill="#325162"/>
<path d="M167.957 74.7491C167.506 74.9332 166.605 75.1174 165.451 75.1174C162.775 75.1174 160.762 73.7638 160.762 71.2702C160.762 68.8889 162.775 67.2756 165.718 67.2756C166.902 67.2756 167.646 67.4782 167.97 67.6127L167.675 68.4156C167.061 68.1948 166.412 68.0875 165.76 68.0989C163.535 68.0989 162.056 69.2388 162.056 71.2297C162.056 73.0916 163.395 74.2868 165.705 74.2868C166.384 74.2962 167.06 74.1897 167.703 73.9719L167.957 74.7491V74.7491Z" fill="#325162"/>
<path d="M170.055 72.2793C170.055 73.4746 170.913 74.377 172.125 74.377C173.307 74.377 174.193 73.4856 174.193 72.2554C174.193 71.3346 173.617 70.1577 172.152 70.1577C170.688 70.1577 170.055 71.2388 170.055 72.2793ZM175.46 72.2222C175.46 74.2481 173.714 75.1228 172.068 75.1228C170.226 75.1228 168.802 74.0381 168.802 72.3125C168.802 70.4855 170.294 69.4119 172.18 69.4119C174.138 69.4119 175.46 70.5519 175.46 72.2222V72.2222Z" fill="#325162"/>
<path d="M177.022 74.9977H178.261V66.9846H177.022V74.9977Z" fill="#325162"/>
<path d="M185.202 74.7951C184.574 75.0164 183.911 75.1231 183.245 75.1101C181.189 75.1101 179.852 73.994 179.852 72.3237C179.852 70.6533 181.287 69.4249 183.514 69.4249C184.098 69.4182 184.678 69.5129 185.23 69.7048L184.948 70.4728C184.494 70.2857 184.005 70.1971 183.514 70.2131C181.95 70.2131 181.105 71.1339 181.105 72.2795C181.105 73.5428 182.119 74.32 183.471 74.32C183.99 74.3239 184.505 74.2321 184.991 74.0493L185.202 74.7859V74.7951Z" fill="#325162"/>
<path d="M186.652 66.9846H187.891V70.3935H187.919C188.147 70.0848 188.453 69.8431 188.807 69.6937C189.204 69.5097 189.636 69.4136 190.074 69.4119C190.994 69.4119 192.453 69.8631 192.453 71.7471V74.9977H191.214V71.8669C191.214 70.9865 190.805 70.2407 189.637 70.2407C188.834 70.2407 188.201 70.6919 187.98 71.2352C187.912 71.3832 187.883 71.5461 187.895 71.7085V75.0032H186.656V66.9846H186.652Z" fill="#325162"/>
<path d="M195.563 68.5998C195.534 67.8632 195.915 67.4249 196.521 67.4249C196.827 67.4412 197.126 67.5268 197.394 67.6753C197.578 67.7733 197.778 67.8358 197.985 67.8595C198.21 67.8595 198.353 67.7564 198.379 67.3733H199.04C199.055 68.1302 198.731 68.5133 198.07 68.5133C197.771 68.4971 197.478 68.4201 197.21 68.2868C197.026 68.1746 196.82 68.1054 196.606 68.0842C196.379 68.0842 196.267 68.2683 196.237 68.5925L195.563 68.5998ZM195.224 72.2831C195.215 72.5589 195.261 72.8338 195.361 73.0909C195.462 73.3481 195.613 73.582 195.807 73.7784C196.001 73.9748 196.233 74.1296 196.489 74.2332C196.744 74.3368 197.019 74.387 197.294 74.3808C198.479 74.3808 199.365 73.4894 199.365 72.2592C199.365 71.3384 198.788 70.1616 197.324 70.1616C195.86 70.1616 195.224 71.2426 195.224 72.2831ZM200.632 72.226C200.632 74.2519 198.886 75.1267 197.237 75.1267C195.396 75.1267 193.972 74.0419 193.972 72.3163C193.972 70.4894 195.464 69.4157 197.352 69.4157C199.307 69.4157 200.632 70.5557 200.632 72.226V72.226Z" fill="#325162"/>
<path d="M206.518 71.7362C206.53 71.1045 206.193 70.1229 204.799 70.1229C204.338 70.1046 203.887 70.2603 203.535 70.5591C203.183 70.8579 202.956 71.278 202.899 71.7362H206.518ZM202.884 72.4489C202.912 73.7915 203.989 74.3458 205.221 74.3458C205.861 74.3637 206.5 74.2684 207.107 74.0641L207.319 74.7749C206.588 75.0154 205.821 75.1294 205.052 75.112C202.954 75.112 201.702 74.007 201.702 72.3495C201.702 70.692 202.912 69.4028 204.897 69.4028C207.122 69.4028 207.713 70.9719 207.713 71.9811C207.711 72.1361 207.697 72.2907 207.67 72.4434L202.884 72.4489Z" fill="#325162"/>
<path d="M209.079 73.9829C209.587 74.2331 210.145 74.3677 210.711 74.377C211.612 74.377 212.035 74.0087 212.035 73.5648C212.035 73.121 211.683 72.8282 210.768 72.5611C209.543 72.2112 208.965 71.6698 208.965 71.0141C208.965 70.1338 209.853 69.4119 211.317 69.4119C211.893 69.4052 212.464 69.5207 212.993 69.7508L212.682 70.4727C212.247 70.2624 211.77 70.1546 211.288 70.1578C210.551 70.1578 210.148 70.4948 210.148 70.8944C210.148 71.3456 210.556 71.5482 211.437 71.8152C212.619 72.1836 213.223 72.6495 213.223 73.4617C213.223 74.4212 212.302 75.0971 210.676 75.0971C210.019 75.1107 209.366 74.9852 208.761 74.7287L209.072 73.9737L209.079 73.9829Z" fill="#325162"/>
<path d="M219.761 70.7657C219.761 71.1542 219.984 71.4544 220.277 71.7454C220.964 71.4305 221.407 71.1377 221.407 70.6773C221.407 70.3439 221.175 69.9719 220.619 69.9719C220.063 69.9719 219.761 70.3402 219.761 70.7657ZM221.833 74.0935C221.428 73.7381 220.671 73.0733 219.912 72.3771C219.544 72.5613 219.034 72.9112 219.034 73.4821C219.034 74.1046 219.61 74.5871 220.428 74.5871C220.94 74.596 221.439 74.4208 221.833 74.0935V74.0935ZM222.903 75.0328C222.719 74.8799 222.535 74.7252 222.266 74.5005C221.691 74.9241 220.991 75.1432 220.277 75.123C218.953 75.123 218.185 74.4103 218.185 73.5908C218.185 72.8541 218.737 72.3366 219.518 71.9977V71.9719C219.164 71.6165 218.953 71.2187 218.953 70.8301C218.953 70.1671 219.549 69.4875 220.68 69.4875C221.529 69.4875 222.186 69.9406 222.186 70.6441C222.186 71.2187 221.772 71.6736 220.691 72.1027V72.1266C221.266 72.6607 221.914 73.2593 222.349 73.6479C222.697 73.1802 222.924 72.6325 223.006 72.0548H223.814C223.63 72.9112 223.339 73.5908 222.835 74.0696C223.203 74.3771 223.551 74.6847 223.954 75.0328H222.903Z" fill="#325162"/>
<path d="M237.347 71.6569C237.277 70.5961 237.192 69.3217 237.207 68.3732H237.165C236.84 69.2646 236.446 70.2149 235.968 71.2628L234.293 74.9461H233.373L231.839 71.3236C231.418 70.3582 231.049 69.3708 230.734 68.3659H230.706C230.678 69.3143 230.608 70.5888 230.522 71.7287L230.268 74.9903H229.098L229.761 67.3843H231.323L232.944 71.0676C233.307 71.9042 233.626 72.7593 233.899 73.6293H233.944C234.229 72.7577 234.562 71.9024 234.942 71.0676L236.632 67.3843H238.194L238.785 74.9903H237.588L237.349 71.6495L237.347 71.6569Z" fill="#325162"/>
<path d="M245.4 67.178L243.682 68.7913H242.794L244.034 67.178H245.4ZM241.472 72.2794C241.472 73.4746 242.33 74.377 243.542 74.377C244.724 74.377 245.612 73.4856 245.612 72.2554C245.612 71.3346 245.034 70.1578 243.57 70.1578C242.106 70.1578 241.472 71.2388 241.472 72.2794ZM246.877 72.2223C246.877 74.2481 245.133 75.1229 243.485 75.1229C241.643 75.1229 240.22 74.0381 240.22 72.3125C240.22 70.4856 241.711 69.4119 243.597 69.4119C245.555 69.4119 246.877 70.5519 246.877 72.2223V72.2223Z" fill="#325162"/>
<path d="M248.821 69.5354L250.16 72.6054C250.372 73.0603 250.557 73.5277 250.712 74.0051H250.754C250.907 73.5521 251.106 73.1027 251.331 72.6054L252.655 69.5354H253.944L251.27 74.9978H250.088L247.497 69.5354H248.821Z" fill="#325162"/>
<path d="M259.296 71.7362C259.309 71.1045 258.972 70.1229 257.578 70.1229C257.116 70.1046 256.665 70.2603 256.313 70.5591C255.961 70.8579 255.734 71.278 255.677 71.7362H259.296ZM255.662 72.4489C255.692 73.7915 256.767 74.3458 257.999 74.3458C258.64 74.3637 259.279 74.2683 259.887 74.0641L260.097 74.7749C259.367 75.0153 258.601 75.1293 257.832 75.112C255.734 75.112 254.48 74.007 254.48 72.3495C254.48 70.692 255.692 69.4028 257.675 69.4028C259.9 69.4028 260.491 70.9719 260.491 71.9811C260.49 72.1361 260.476 72.2906 260.451 72.4434L255.662 72.4489Z" fill="#325162"/>
<path d="M262.025 74.9976V69.5352H263.267V74.9976H262.025ZM263.407 67.9993C263.419 68.3382 263.11 68.6089 262.618 68.6089C262.182 68.6089 261.871 68.3382 261.871 67.9993C261.871 67.6604 262.195 67.3787 262.646 67.3787C263.097 67.3787 263.407 67.6494 263.407 67.9993V67.9993Z" fill="#325162"/>
<path d="M265.145 73.9829C265.653 74.2331 266.21 74.3677 266.776 74.377C267.679 74.377 268.101 74.0087 268.101 73.5648C268.101 73.121 267.749 72.8282 266.834 72.5611C265.609 72.2112 265.031 71.6698 265.031 71.0141C265.031 70.1338 265.918 69.4119 267.384 69.4119C267.96 69.4052 268.531 69.5207 269.058 69.7508L268.749 70.4727C268.314 70.2626 267.837 70.1549 267.355 70.1578C266.618 70.1578 266.213 70.4948 266.213 70.8944C266.213 71.3456 266.622 71.5482 267.502 71.8153C268.684 72.1836 269.29 72.6495 269.29 73.4617C269.29 74.4212 268.37 75.0971 266.741 75.0971C266.084 75.1107 265.432 74.9852 264.826 74.7288L265.137 73.9737L265.145 73.9829Z" fill="#325162"/>
</svg>
